<svg width="23" height="13" viewBox="0 0 23 13" fill="none" xmlns="http://www.w3.org/2000/svg">
<path id="Vector" d="M11.4896 9.60241L11.1392 9.25842L2.58343 0.857189C2.35249 0.639594 2.04217 0.517785 1.71837 0.520548C1.39323 0.523322 1.08399 0.651447 0.856764 0.874563C0.629839 1.09739 0.5028 1.3969 0.500048 1.70806C0.497305 2.01792 0.617994 2.31825 0.839081 2.54449L10.6173 12.1461C10.6173 12.1461 10.6174 12.1461 10.6174 12.1461C10.8472 12.3717 11.1608 12.5 11.4896 12.5C11.8184 12.5 12.1319 12.3717 12.3617 12.1461L11.4896 9.60241ZM11.4896 9.60241L11.8399 9.25842M11.4896 9.60241L11.8399 9.25842M11.8399 9.25842L20.399 0.853933C20.399 0.853916 20.399 0.853898 20.3991 0.853881C20.6289 0.628308 20.9424 0.5 21.2712 0.5C21.6 0.5 21.9135 0.628288 22.1434 0.853827L11.8399 9.25842ZM22.1434 2.54122L12.3618 12.1461L22.1435 0.853933C22.3729 1.07929 22.5 1.38291 22.5 1.69753C22.5 2.01217 22.3728 2.31581 22.1434 2.54117C22.1434 2.54119 22.1434 2.5412 22.1434 2.54122Z" fill="white" stroke="white"/>
</svg>
