<svg width="32" height="34" viewBox="0 0 32 34" fill="none" xmlns="http://www.w3.org/2000/svg">
<g id="Vector">
<path id="Vector_2" d="M31.9598 8.19596L28.4233 23.2802C28.2288 24.1042 27.8129 24.8306 27.2387 25.3492C26.6645 25.8677 25.9632 26.1503 25.2412 26.1538H11.6082C10.8841 26.1535 10.18 25.8724 9.60324 25.3536C9.02649 24.8348 8.60875 24.1066 8.41374 23.2802L3.57515 2.61538H1.10344C0.81079 2.61538 0.530126 2.47761 0.32319 2.23237C0.116255 1.98713 0 1.65451 0 1.30769C0 0.960871 0.116255 0.628254 0.32319 0.383014C0.530126 0.137774 0.81079 2.41537e-08 1.10344 2.41537e-08H4.41376C4.65501 -5.49065e-05 4.88962 0.0935843 5.08168 0.266583C5.27374 0.439582 5.41267 0.682407 5.4772 0.957885L6.78478 6.53846H30.8963C31.0665 6.53842 31.2343 6.58499 31.3867 6.67454C31.5391 6.76409 31.672 6.89418 31.7749 7.05466C31.8779 7.21513 31.9481 7.40165 31.9802 7.59964C32.0123 7.79762 32.0053 8.00171 31.9598 8.19596ZM11.0344 28.7692C10.5979 28.7692 10.1713 28.9226 9.80833 29.21C9.44541 29.4974 9.16255 29.9059 8.99552 30.3838C8.82848 30.8616 8.78478 31.3875 8.86993 31.8948C8.95508 32.4022 9.16527 32.8682 9.47391 33.234C9.78255 33.5997 10.1758 33.8488 10.6039 33.9497C11.032 34.0507 11.4757 33.9989 11.8789 33.8009C12.2822 33.603 12.6269 33.2677 12.8694 32.8376C13.1119 32.4076 13.2413 31.9019 13.2413 31.3846C13.2413 30.691 13.0088 30.0257 12.5949 29.5353C12.181 29.0448 11.6197 28.7692 11.0344 28.7692ZM25.3791 28.7692C24.9427 28.7692 24.516 28.9226 24.1531 29.21C23.7901 29.4974 23.5073 29.9059 23.3402 30.3838C23.1732 30.8616 23.1295 31.3875 23.2147 31.8948C23.2998 32.4022 23.51 32.8682 23.8186 33.234C24.1273 33.5997 24.5205 33.8488 24.9486 33.9497C25.3767 34.0507 25.8204 33.9989 26.2237 33.8009C26.6269 33.603 26.9716 33.2677 27.2141 32.8376C27.4566 32.4076 27.586 31.9019 27.586 31.3846C27.586 30.691 27.3535 30.0257 26.9396 29.5353C26.5258 29.0448 25.9644 28.7692 25.3791 28.7692Z" fill="#AFCCB8"/>
</g>
</svg>
