<svg width="18" height="18" viewBox="0 0 18 18" fill="none" xmlns="http://www.w3.org/2000/svg">
<path d="M17.6208 15.5855C17.8622 15.8117 17.9979 16.1184 17.9979 16.4383C17.9979 16.7581 17.8622 17.0649 17.6208 17.291C17.3793 17.5172 17.0518 17.6443 16.7104 17.6443C16.3689 17.6443 16.0415 17.5172 15.8 17.291L9 10.9194L2.19785 17.289C1.9564 17.5152 1.62893 17.6422 1.28747 17.6422C0.946014 17.6422 0.61854 17.5152 0.377092 17.289C0.135644 17.0629 3.59785e-09 16.7561 0 16.4363C-3.59785e-09 16.1164 0.135644 15.8097 0.377092 15.5835L7.17924 9.21392L0.379234 2.84233C0.137786 2.61617 0.00214212 2.30942 0.00214212 1.98958C0.00214212 1.66973 0.137786 1.36298 0.379234 1.13682C0.620682 0.910654 0.948155 0.783596 1.28961 0.783596C1.63107 0.783596 1.95855 0.910654 2.19999 1.13682L9 7.50841L15.8021 1.13582C16.0436 0.909651 16.3711 0.782593 16.7125 0.782593C17.054 0.782593 17.3815 0.909651 17.6229 1.13582C17.8644 1.36198 18 1.66873 18 1.98857C18 2.30842 17.8644 2.61516 17.6229 2.84133L10.8208 9.21392L17.6208 15.5855Z" fill="#16302B"/>
</svg>
