<svg width="49" height="45" viewBox="0 0 49 45" fill="none" xmlns="http://www.w3.org/2000/svg">
<path d="M26.0312 7.73438C26.0312 7.17493 25.7893 6.63841 25.3585 6.24282C24.9278 5.84724 24.3435 5.625 23.7344 5.625C23.1252 5.625 22.541 5.84724 22.1102 6.24282C21.6795 6.63841 21.4375 7.17493 21.4375 7.73438V19.6875H8.42188C7.81271 19.6875 7.22849 19.9097 6.79774 20.3053C6.36699 20.7009 6.125 21.2374 6.125 21.7969C6.125 22.3563 6.36699 22.8928 6.79774 23.2884C7.22849 23.684 7.81271 23.9062 8.42188 23.9062H21.4375V35.8594C21.4375 36.4188 21.6795 36.9553 22.1102 37.3509C22.541 37.7465 23.1252 37.9688 23.7344 37.9688C24.3435 37.9688 24.9278 37.7465 25.3585 37.3509C25.7893 36.9553 26.0312 36.4188 26.0312 35.8594V23.9062H39.0469C39.656 23.9062 40.2403 23.684 40.671 23.2884C41.1018 22.8928 41.3438 22.3563 41.3438 21.7969C41.3438 21.2374 41.1018 20.7009 40.671 20.3053C40.2403 19.9097 39.656 19.6875 39.0469 19.6875H26.0312V7.73438Z" fill="#16302B"/>
</svg>
