<svg width="18" height="37" viewBox="0 0 18 37" fill="none" xmlns="http://www.w3.org/2000/svg">
<path d="M5.01315 18.3063L5.29667 17.979L16.9307 4.54653C17.276 4.13215 17.4761 3.56506 17.4715 2.96493C17.467 2.36331 17.2575 1.79964 16.9051 1.39278C16.5546 0.988083 16.0968 0.775131 15.6361 0.770508C15.1768 0.7659 14.7179 0.96841 14.3625 1.36311L1.06631 16.7146C1.0663 16.7146 1.06628 16.7146 1.06627 16.7146C0.709947 17.1262 0.5 17.6978 0.5 18.3063C0.5 18.9148 0.709947 19.4865 1.06627 19.898L5.01315 18.3063ZM5.01315 18.3063L5.29667 18.6337M5.01315 18.3063L5.29667 18.6337M5.29667 18.6337L16.9337 32.0695C17.29 32.4811 17.5 33.0527 17.5 33.6613C17.5 34.2697 17.2901 34.8413 16.9338 35.2529L5.29667 18.6337ZM14.3654 35.2529L1.06631 19.8981L16.9337 35.253C16.5792 35.6621 16.1153 35.875 15.6496 35.875C15.1839 35.875 14.7199 35.6621 14.3654 35.2529C14.3654 35.2529 14.3654 35.2529 14.3654 35.2529Z" fill="white" stroke="white"/>
</svg>
