<svg width="26" height="24" viewBox="0 0 26 24" fill="none" xmlns="http://www.w3.org/2000/svg">
<path id="Vector" d="M23.6667 19.3333C24.1803 19.3335 24.6742 19.5314 25.0459 19.8858C25.4176 20.2403 25.6387 20.7242 25.6634 21.2372C25.6881 21.7502 25.5145 22.2531 25.1785 22.6416C24.8425 23.0301 24.3699 23.2744 23.8587 23.324L23.6667 23.3333H2.33337C1.81975 23.333 1.32591 23.1352 0.954192 22.7807C0.582469 22.4263 0.361358 21.9424 0.336675 21.4294C0.311992 20.9164 0.48563 20.4135 0.821608 20.025C1.15759 19.6365 1.63015 19.3922 2.14137 19.3426L2.33337 19.3333H23.6667ZM23.6667 9.99996C24.1971 9.99996 24.7058 10.2107 25.0809 10.5857C25.456 10.9608 25.6667 11.4695 25.6667 12C25.6667 12.5304 25.456 13.0391 25.0809 13.4142C24.7058 13.7892 24.1971 14 23.6667 14H2.33337C1.80294 14 1.29423 13.7892 0.91916 13.4142C0.544088 13.0391 0.333374 12.5304 0.333374 12C0.333374 11.4695 0.544088 10.9608 0.91916 10.5857C1.29423 10.2107 1.80294 9.99996 2.33337 9.99996H23.6667ZM23.6667 0.666626C24.1971 0.666626 24.7058 0.87734 25.0809 1.25241C25.456 1.62749 25.6667 2.13619 25.6667 2.66663C25.6667 3.19706 25.456 3.70577 25.0809 4.08084C24.7058 4.45591 24.1971 4.66663 23.6667 4.66663H2.33337C1.80294 4.66663 1.29423 4.45591 0.91916 4.08084C0.544088 3.70577 0.333374 3.19706 0.333374 2.66663C0.333374 2.13619 0.544088 1.62749 0.91916 1.25241C1.29423 0.87734 1.80294 0.666626 2.33337 0.666626H23.6667Z" fill="#16302B"/>
</svg>
