<svg width="40" height="39" viewBox="0 0 40 39" fill="none" xmlns="http://www.w3.org/2000/svg">
<ellipse cx="20" cy="19.5" rx="20" ry="19.5" fill="#2C6758"/>
<path d="M17.351 11.3999C17.1262 11.6561 17 12.0034 17 12.3656C17 12.7278 17.1262 13.0752 17.351 13.3313L23.2841 20.0926L17.351 26.8539C17.1326 27.1115 17.0118 27.4566 17.0145 27.8147C17.0173 28.1728 17.1433 28.5154 17.3656 28.7687C17.5878 29.0219 17.8884 29.1656 18.2027 29.1687C18.517 29.1718 18.8197 29.0341 19.0458 28.7853L25.8264 21.0583C26.0511 20.8022 26.1774 20.4548 26.1774 20.0926C26.1774 19.7304 26.0511 19.3831 25.8264 19.1269L19.0458 11.3999C18.821 11.1439 18.5162 11 18.1984 11C17.8805 11 17.5757 11.1439 17.351 11.3999Z" fill="white"/>
</svg>
