<svg width="18" height="37" viewBox="0 0 18 37" fill="none" xmlns="http://www.w3.org/2000/svg">
<path d="M12.9868 18.3391L12.7033 18.6665L1.06925 32.0989C0.723969 32.5133 0.523945 33.0804 0.528463 33.6805C0.53299 34.2821 0.742517 34.8458 1.0949 35.2527C1.44542 35.6574 1.90323 35.8703 2.3639 35.8749C2.82323 35.8796 3.28216 35.677 3.63755 35.2823L16.9337 19.9309C16.9337 19.9308 16.9337 19.9308 16.9337 19.9308C17.2901 19.5192 17.5 18.9476 17.5 18.3391C17.5 17.7306 17.2901 17.159 16.9337 16.7474L12.9868 18.3391ZM12.9868 18.3391L12.7033 18.0118L1.06631 4.57593C0.709967 4.16437 0.5 3.5927 0.5 2.98419C0.5 2.37573 0.709929 1.80412 1.06622 1.39257C1.4207 0.983408 1.88471 0.770447 2.35042 0.770447C2.81611 0.770447 3.28009 0.983388 3.63457 1.39251C3.63459 1.39253 3.63461 1.39255 3.63462 1.39257L16.9337 16.7474L12.9868 18.3391Z" fill="white" stroke="white"/>
</svg>
