<svg width="39" height="39" viewBox="0 0 39 39" fill="none" xmlns="http://www.w3.org/2000/svg">
<g id="gg:search">
<path id="Vector" fill-rule="evenodd" clip-rule="evenodd" d="M29.7684 23.4537C31.7947 20.8412 32.7497 17.555 32.4391 14.2634C32.1284 10.9719 30.5755 7.92229 28.0962 5.73509C25.6169 3.54789 22.3974 2.38737 19.0928 2.48962C15.7882 2.59188 12.6467 3.94924 10.3074 6.28555C7.96599 8.62348 6.6042 11.7662 6.4995 15.0733C6.3948 18.3804 7.55506 21.603 9.74386 24.0844C11.9327 26.5657 14.9852 28.1191 18.2796 28.4279C21.5739 28.7368 24.862 27.7778 27.4739 25.7465L27.5437 25.8197L34.437 32.7145C34.588 32.8655 34.7672 32.9853 34.9645 33.067C35.1617 33.1487 35.3732 33.1908 35.5867 33.1908C35.8002 33.1908 36.0116 33.1487 36.2089 33.067C36.4061 32.9853 36.5854 32.8655 36.7364 32.7145C36.8873 32.5636 37.0071 32.3843 37.0888 32.1871C37.1705 31.9898 37.2126 31.7784 37.2126 31.5649C37.2126 31.3513 37.1705 31.1399 37.0888 30.9427C37.0071 30.7454 36.8873 30.5662 36.7364 30.4152L29.8415 23.5219C29.8177 23.4985 29.7934 23.4757 29.7684 23.4537ZM26.3949 8.58492C27.3123 9.48758 28.042 10.563 28.5418 11.749C29.0416 12.9351 29.3016 14.2084 29.3069 15.4954C29.3121 16.7825 29.0625 18.0578 28.5723 19.2479C28.0822 20.438 27.3613 21.5193 26.4512 22.4294C25.5411 23.3395 24.4599 24.0604 23.2698 24.5505C22.0797 25.0407 20.8043 25.2903 19.5172 25.2851C18.2302 25.2798 16.9569 25.0198 15.7708 24.52C14.5848 24.0202 13.5094 23.2905 12.6067 22.373C10.8029 20.5395 9.79655 18.0675 9.80703 15.4954C9.8175 12.9233 10.8439 10.4596 12.6627 8.64084C14.4814 6.82208 16.9452 5.79568 19.5172 5.78521C22.0893 5.77474 24.5614 6.78104 26.3949 8.58492Z" fill="#AFCCB8"/>
</g>
</svg>
